{
  "accessors": [
    {
      "bufferView": 2,
      "componentType": 5126,
      "count": 14954,
      "max": [
        2.477992057800293,
        27.790203094482422,
        0.9113280177116394
      ],
      "min": [
        0.5806130170822144,
        26.130088806152344,
        -0.49466899037361145
      ],
      "type": "VEC3"
    },
    {
      "bufferView": 2,
      "byteOffset": 179448,
      "componentType": 5126,
      "count": 14954,
      "max": [
        0.9999765157699585,
        0.9996870160102844,
        0.9998090267181396
      ],
      "min": [
        -0.9999954700469971,
        -0.9999659061431885,
        -0.9999209046363831
      ],
      "type": "VEC3"
    },
    {
      "bufferView": 3,
      "componentType": 5126,
      "count": 14954,
      "max": [
        0.9979762434959412,
        0.9999999403953552,
        0.9957630038261414,
        1.0
      ],
      "min": [
        -0.9999947547912598,
        -0.9999086260795593,
        -0.9998337030410767,
        -1.0
      ],
      "type": "VEC4"
    },
    {
      "bufferView": 1,
      "componentType": 5126,
      "count": 14954,
      "max": [
        0.9663249850273132,
        0.999983012676239
      ],
      "min": [
        5.199999941396527e-05,
        4.999999873689376e-06
      ],
      "type": "VEC2"
    },
    {
      "bufferView": 0,
      "componentType": 5125,
      "count": 19188,
      "type": "SCALAR"
    }
  ],
  "asset": {
    "extras": {
      "author": "Minneapolis Institute of Art (https://sketchfab.com/artsmia)",
      "license": "CC0-1.0 (http://creativecommons.org/publicdomain/zero/1.0/)",
      "source": "https://sketchfab.com/3d-models/netsuke-snake-curled-around-a-turtle-4c379e58642c471fad32406fe90c7cc4",
      "title": "Netsuke - Snake curled around a turtle"
    },
    "generator": "Sketchfab-12.64.0",
    "version": "2.0"
  },
  "bufferViews": [
    {
      "buffer": 0,
      "byteLength": 76752,
      "name": "floatBufferViews",
      "target": 34963
    },
    {
      "buffer": 0,
      "byteLength": 119632,
      "byteOffset": 76752,
      "byteStride": 8,
      "name": "floatBufferViews",
      "target": 34962
    },
    {
      "buffer": 0,
      "byteLength": 358896,
      "byteOffset": 196384,
      "byteStride": 12,
      "name": "floatBufferViews",
      "target": 34962
    },
    {
      "buffer": 0,
      "byteLength": 239264,
      "byteOffset": 555280,
      "byteStride": 16,
      "name": "floatBufferViews",
      "target": 34962
    }
  ],
  "buffers": [
    {
      "byteLength": 794544,
      "uri": "scene.bin"
    }
  ],
  "images": [
    {
      "uri": "textures/aiStandardSurface1SG_baseColor.jpeg"
    },
    {
      "uri": "textures/aiStandardSurface1SG_metallicRoughness.png"
    },
    {
      "uri": "textures/aiStandardSurface1SG_normal.png"
    }
  ],
  "materials": [
    {
      "doubleSided": true,
      "name": "aiStandardSurface1SG",
      "normalTexture": {
        "index": 2
      },
      "pbrMetallicRoughness": {
        "baseColorTexture": {
          "index": 0
        },
        "metallicFactor": 0.0,
        "metallicRoughnessTexture": {
          "index": 1
        }
      }
    }
  ],
  "meshes": [
    {
      "name": "Object_0",
      "primitives": [
        {
          "attributes": {
            "NORMAL": 1,
            "POSITION": 0,
            "TANGENT": 2,
            "TEXCOORD_0": 3
          },
          "indices": 4,
          "material": 0,
          "mode": 4
        }
      ]
    }
  ],
  "nodes": [
    {
      "children": [
        1
      ],
      "matrix": [
        0.0715630911330134,
        -0.009640925676998924,
        -2.140715533060816e-18,
        0.0,
        0.0008554011849782606,
        0.00634951020571352,
        -0.07192479290937825,
        0.0,
        0.009602902831169047,
        0.07128085459733757,
        0.006406870504463329,
        0.0,
        -0.3335469663143158,
        -2.163795232772827,
        -0.12491998821497012,
        1.0
      ],
      "name": "Sketchfab_model"
    },
    {
      "children": [
        2
      ],
      "name": "190102_122704_202_64Kmesh_OBJ_LowRes_.obj.cleaner.materialmerger.gles"
    },
    {
      "mesh": 0,
      "name": "Object_2"
    }
  ],
  "samplers": [
    {
      "magFilter": 9729,
      "minFilter": 9987,
      "wrapS": 10497,
      "wrapT": 10497
    }
  ],
  "scene": 0,
  "scenes": [
    {
      "name": "Sketchfab_Scene",
      "nodes": [
        0
      ]
    }
  ],
  "textures": [
    {
      "sampler": 0,
      "source": 0
    },
    {
      "sampler": 0,
      "source": 1
    },
    {
      "sampler": 0,
      "source": 2
    }
  ]
}
